# AST/ASF file generated using VICON BodyLanguage
# -----------------------------------------------
:version 1.10
:name VICON
:units
  mass 1.0
  length 0.45
  angle deg
:documentation
   .ast/.asf automatically generated from VICON data using
   VICON BodyBuilder and BodyLanguage model FoxedUp or BRILLIANT.MOD
:root
   order TX TY TZ RX RY RZ
   axis XYZ
   position 0 0 0  
   orientation 0 0 0 
:bonedata
  begin
     id 1 
     name lhipjoint
     direction 0.558404 -0.748506 0.357664 
     length 2.4234 
     axis 0 0 0  XYZ
  end
  begin
     id 2 
     name lfemur
     direction 0.34202 -0.939693 0  
     length 7.14567  
     axis 0 0 20  XYZ
    dof rx ry rz
    limits (-160.0 20.0)
           (-70.0 70.0)
           (-60.0 70.0)
  end
  begin
     id 3 
     name ltibia
     direction 0.34202 -0.939693 0   
     length 8.13956   
     axis 0 0 20   XYZ
    dof rx
    limits (-10.0 170.0)
  end
  begin
     id 4 
     name lfoot
     direction 0.0791314 -0.217412 0.972867   
     length 2.00134   
     axis -90 7.62852e-016 20   XYZ
    dof rx rz
    limits (-45.0 90.0)
           (-70.0 20.0)
  end
  begin
     id 5 
     name ltoes
     direction 1.53547e-011 -4.21922e-011 1   
     length 1.00735   
     axis -90 7.62852e-016 20   XYZ
    dof rx
    limits (-90.0 20.0)
  end
  begin
     id 6 
     name rhipjoint
     direction -0.496392 -0.78327 0.374276   
     length 2.31584  
     axis 0 0 0  XYZ 
  end
  begin
     id 7 
     name rfemur
     direction -0.34202 -0.939693 0   
     length 7.47417   
     axis 0 0 -20   XYZ
    dof rx ry rz
    limits (-160.0 20.0)
           (-70.0 70.0)
           (-70.0 60.0)
  end
  begin
     id 8 
     name rtibia
     direction -0.34202 -0.939693 0   
     length 7.69071   
     axis 0 0 -20   XYZ
    dof rx
    limits (-10.0 170.0)
 end
 begin
     id 9 
     name rfoot
     direction -0.103069 -0.28318 0.953512   
     length 2.16135  
     axis -90 -7.62852e-016 -20   XYZ
    dof rx rz
    limits (-45.0 90.0)
           (-20.0 70.0)
  end
  begin
     id 10 
     name rtoes
     direction -1.53581e-011 -4.21904e-011 1   
     length 1.07867   
     axis -90 -7.62852e-016 -20   XYZ
    dof rx
    limits (-90.0 20.0)
  end
  begin
     id 11 
     name lowerback
     direction -0.0258961 0.994776 -0.0987407   
     length 2.19412   
     axis 0 0 0   XYZ
    dof rx ry rz
    limits (-20.0 45.0)
           (-30.0 30.0)
           (-30.0 30.0)
  end
  begin
     id 12 
     name upperback
     direction 0.0402454 0.999185 0.00320666   
     length 2.18445   
     axis 0 0 0   XYZ
    dof rx ry rz
    limits (-20.0 45.0)
           (-30.0 30.0)
           (-30.0 30.0)
  end
  begin
     id 13 
     name thorax
     direction 0.0519376 0.997415 0.0496558   
     length 2.21487   
     axis 0 0 0   XYZ
    dof rx ry rz
    limits (-20.0 45.0)
           (-30.0 30.0)
           (-30.0 30.0)
  end
  begin
     id 14 
     name lowerneck
     direction -0.0921276 0.983211 0.157506   
     length 1.61201   
     axis 0 0 0   XYZ
    dof rx ry rz
    limits (-20.0 45.0)
           (-30.0 30.0)
           (-30.0 30.0)
  end
  begin
     id 15 
     name upperneck
     direction 0.0820814 0.98162 -0.172292   
     length 1.65275   
     axis 0 0 0   XYZ
    dof rx ry rz
    limits (-20.0 45.0)
           (-30.0 30.0)
           (-30.0 30.0)
  end
  begin
     id 16
     name head
     direction 0.0336554 0.996413 -0.0776455  
     length 1.66415  
     axis 0 0 0   XYZ
    dof rx ry rz
    limits (-20.0 45.0)
           (-30.0 30.0)
           (-30.0 30.0)
  end
  begin
     id 17 
     name lclavicle
     direction 0.94696 0.284418 -0.149576  
     length 3.41447  
     axis 0 0 0   XYZ
    dof ry rz
    limits (-20.0 10.0)
           (0.0 20.0)
  end
  begin
     id 18 
     name lhumerus
     direction 1 -0.000130264 -9.81312e-005   
     length 5.19964   
     axis 180 -30 -90   XYZ
    dof rx ry rz
    limits (-60.0 90.0)
           (-90.0 90.0)
           (-90.0 90.0)
  end
  begin
     id 19
     name lradius
     direction 1 -4.48961e-011 1.43854e-026   
     length 3.32189   
     axis 180 -30 -90   XYZ
    dof rx
    limits (-10.0 170.0)
  end
  begin
     id 20
     name lwrist
     direction 1 -4.48958e-011 3.1502e-026   
     length 1.66095   
     axis -1.97692e-014 90 90   XYZ
    dof ry
    limits (-180.0 0.0)
 end
  begin
     id 21 
     name lhand
     direction 1 -4.48927e-011 6.3004e-026   
     length 0.645616   
     axis -4.02019e-014 90 90   XYZ
    dof rx rz
    limits (-90.0 90.0)
           (-45.0 45.0)
  end
  begin
     id 22 
     name lfingers
     direction 1 -4.4904e-011 1.26008e-025   
     length 0.520512   
     axis -8.04039e-014 90 90   XYZ
    dof rx
    limits (0.0 90.0)
  end
  begin
     id 23
     name lthumb
     direction 0.707107 -6.34947e-011 0.707107   
     length 0.747354   
     axis -90 45 2.85299e-015   XYZ
    dof rx rz
    limits (-45.0 45.0)
           (-45.0 45.0)
  end
  begin
     id 24 
     name rclavicle
     direction -0.909391 0.383475 -0.161107   
     length 3.25176  
     axis 0 0 0   XYZ 
    dof ry rz
    limits (-10.0 20.0)
           (-20.0 0.0)
  end
  begin
     id 25 
     name rhumerus
     direction -1 -4.48965e-011 -1.81384e-027  
     length 5.6595   
     axis 180 30 90   XYZ
    dof rx ry rz
    limits (-90.0 60.0)
           (-90.0 90.0)
           (-90.0 90.0)
  end
  begin
     id 26 
     name rradius
     direction -1 -4.48996e-011 -8.09397e-027   
     length 3.37604   
     axis 180 30 90   XYZ
    dof rx
    limits (-10.0 170.0)
  end
  begin
     id 27 
     name rwrist
     direction -1 -4.48927e-011 -1.56669e-026   
     length 1.68802   
     axis 1.21142e-014 -90 -90   XYZ
    dof ry
    limits (-180.0 0.0)
  end
  begin
     id 28
     name rhand
     direction -1 -4.48912e-011 -3.13339e-026   
     length 0.824702   
     axis 1.99937e-014 -90 -90   XYZ
    dof rx rz
    limits (-90.0 90.0)
           (-45.0 45.0)
  end
  begin
     id 29
     name rfingers
     direction -1 -4.49011e-011 -6.26677e-026   
     length 0.664896   
     axis 3.99874e-014 -90 -90   XYZ
    dof rx
    limits (0.0 90.0)
  end
  begin
     id 30
     name rthumb
     direction -0.707107 -6.34931e-011 0.707107   
     length 0.954662   
     axis -90 -45 -2.85299e-015   XYZ
    dof rx rz
    limits (-45.0 45.0)
           (-45.0 45.0)
  end
:hierarchy
  begin
    root lhipjoint rhipjoint lowerback
    lhipjoint lfemur
    lfemur ltibia
    ltibia lfoot
    lfoot ltoes
    rhipjoint rfemur
    rfemur rtibia
    rtibia rfoot
    rfoot rtoes
    lowerback upperback
    upperback thorax
    thorax lowerneck lclavicle rclavicle
    lowerneck upperneck
    upperneck head
    lclavicle lhumerus
    lhumerus lradius
    lradius lwrist
    lwrist lhand lthumb
    lhand lfingers
    rclavicle rhumerus
    rhumerus rradius
    rradius rwrist
    rwrist rhand rthumb
    rhand rfingers
  end

#!OML:ASF F:\VICON\USERDATA\INSTALL\rory3\rory3.ASF
:FULLY-SPECIFIED
:DEGREES
369
root 3.46749 14.748 3.02666 -14.1322 -8.40716 2.54091
lowerback 23.7243 -9.06932 -6.35961
upperback 6.64768 -13.0223 7.15
thorax -2.29226 -6.85258 14.6016
lowerneck -8.56388 -2.06352 -10.4039
upperneck 27.3618 -3.01591 6.46586
head 10.3804 -1.83214 3.74685
rclavicle 3.65764e-014 -4.77083e-014
rhumerus -48.8176 -14.4465 -57.4594
rradius 38.3568
rwrist 4.72164
rhand -20.3734 24.5053
rfingers 7.12502
rthumb 5.97936 -5.39036
lclavicle 3.65764e-014 -4.77083e-014
lhumerus 4.93382 -14.6364 108.56
lradius 34.6187
lwrist 5.05214
lhand -20.2022 30.5869
lfingers 7.12502
lthumb 6.14465 60.4778
rfemur -62.0186 3.31228 17.0444
rtibia 39.9764
rfoot -1.71532 -12.3294
rtoes 19.4059
lfemur -28.8175 13.8621 -43.6941
ltibia 66.2905
lfoot -22.5458 2.71693
ltoes 32.0923
370
root 3.46369 14.7518 3.09258 -13.7115 -8.06293 1.39533
lowerback 23.1972 -9.37215 -5.29308
upperback 6.89328 -13.1608 7.33716
thorax -1.91935 -6.94916 14.0978
lowerneck -8.91413 -1.65023 -9.80476
upperneck 26.8858 -2.51581 6.64227
head 10.2107 -1.50438 3.75269
rclavicle -3.26007e-014 2.8625e-014
rhumerus -49.741 -14.843 -58.0009
rradius 37.7967
rwrist 5.18144
rhand -21.6174 23.1574
rfingers 7.12502
rthumb 4.77817 -6.76869
lclavicle -3.26007e-014 2.8625e-014
lhumerus 6.3581 -19.1152 109.261
lradius 34.6702
lwrist 4.64104
lhand -19.5142 29.9109
lfingers 7.12502
lthumb 6.80881 59.7814
rfemur -63.1202 5.20187 19.1386
rtibia 42.3217
rfoot -1.7072 -17.0202
rtoes 19.1213
lfemur -28.7958 13.9833 -42.5031
ltibia 66.2094
lfoot -22.6123 1.91128
ltoes 32.4144
371
root 3.47637 14.7561 3.18843 -13.647 -6.45976 1.18379
lowerback 22.9908 -9.85444 -5.24072
upperback 6.87889 -13.7729 7.48886
thorax -1.63235 -7.28586 14.2834
lowerneck -9.35037 -1.37455 -9.61233
upperneck 26.4518 -2.11426 6.76781
head 10.0946 -1.26754 3.79998
rclavicle 7.55382e-014 2.54444e-014
rhumerus -50.5468 -16.0135 -57.2347
rradius 36.7399
rwrist 6.08325
rhand -21.8581 22.8996
rfingers 7.12502
rthumb 4.54583 -7.03166
lclavicle 7.55382e-014 2.54444e-014
lhumerus 7.87787 -23.2504 110.195
lradius 34.6829
lwrist 3.52298
lhand -18.0587 29.6344
lfingers 7.12502
lthumb 8.21372 59.4547
rfemur -64.0182 6.09721 19.3594
rtibia 44.7874
rfoot 0.27985 -18.522
rtoes 20.1577
lfemur -27.8162 13.167 -42.5926
ltibia 65.8215
lfoot -22.6994 1.30512
ltoes 32.8445
372
root 3.50334 14.7492 3.30188 -13.8556 -4.60266 1.74388
lowerback 23.7177 -10.4858 -5.52216
upperback 6.30064 -14.6435 7.30178
thorax -2.37857 -7.63256 14.6054
lowerneck -9.71754 -1.03158 -9.40997
upperneck 26.5232 -1.58482 6.59282
head 10.1378 -1.01795 3.76449
rclavicle -1.27222e-014 -1.59028e-014
rhumerus -51.8763 -18.1889 -55.0631
rradius 34.8725
rwrist 8.45642
rhand -21.5784 24.0417
rfingers 7.12502
rthumb 4.81584 -5.88353
lclavicle -1.27222e-014 -1.59028e-014
lhumerus 8.91284 -27.7011 110.713
lradius 34.7901
lwrist 3.42559
lhand -17.2915 29.9602
lfingers 7.12502
lthumb 8.95408 59.7502
rfemur -64.622 6.77735 18.3723
rtibia 46.9265
rfoot 3.48971 -17.1763
rtoes 23.4988
lfemur -26.501 12.2281 -43.6038
ltibia 65.5856
lfoot -23.127 0.82018
ltoes 34.3367
373
root 3.52173 14.7594 3.40961 -14.1544 -3.84595 2.56879
lowerback 23.6896 -10.5968 -6.23564
upperback 6.29983 -14.9759 6.92898
thorax -2.20006 -7.81163 14.5946
lowerneck -9.76903 -0.723939 -9.44623
upperneck 26.0729 -1.23084 7.0642
head 9.94816 -0.795568 3.96802
rclavicle 2.21844e-013 -6.52014e-014
rhumerus -52.8306 -17.4691 -55.7197
rradius 34.4246
rwrist 6.77886
rhand -21.5968 24.0652
rfingers 7.12502
rthumb 4.79814 -5.86044
lclavicle 2.21844e-013 -6.52014e-014
lhumerus 10.5234 -32.5335 110.477
lradius 35.0337
lwrist 3.38172
lhand -16.5324 29.9555
lfingers 7.12502
lthumb 9.68653 59.7128
rfemur -65.072 8.50271 17.4628
rtibia 49.054
rfoot 6.78748 -13.9097
rtoes 25.2334
lfemur -25.4221 12.5469 -44.5446
ltibia 65.1
lfoot -23.4255 0.0759872
ltoes 36.6282
374
root 3.52784 14.7822 3.49689 -13.9632 -4.3721 2.032
lowerback 24.1081 -10.5548 -5.70596
upperback 5.87474 -14.7719 7.15746
thorax -3.01022 -7.61735 14.7244
lowerneck -10.0524 -0.486989 -9.58044
upperneck 26.4016 -0.847226 7.03742
head 10.0855 -0.637161 4.03634
rclavicle 1.66184e-013 -3.65764e-014
rhumerus -54.0912 -16.9122 -55.2939
rradius 33.6166
rwrist 5.60442
rhand -21.1282 24.1377
rfingers 7.12502
rthumb 5.25053 -5.77722
lclavicle 1.66184e-013 -3.65764e-014
lhumerus 11.2844 -35.6907 111.282
lradius 35.3025
lwrist 2.10081
lhand -15.2469 29.0531
lfingers 7.12502
lthumb 10.9266 58.7488
rfemur -65.6349 11.1376 18.4537
rtibia 50.8235
rfoot 9.26308 -9.47757
rtoes 25.4942
lfemur -25.2771 13.7574 -43.7998
ltibia 64.6832
lfoot -23.5457 -0.656079
ltoes 37.0479
